<?xml version="1.0" encoding="utf-8"?>
<!-- Generator: Adobe Illustrator 19.0.0, SVG Export Plug-In . SVG Version: 6.00 Build 0)  -->
<svg version="1.1" id="Слой_1" xmlns="http://www.w3.org/2000/svg" xmlns:xlink="http://www.w3.org/1999/xlink" x="0px" y="0px"
	 viewBox="0 0 123.6 113.5" style="enable-background:new 0 0 123.6 113.5;" xml:space="preserve">
<style type="text/css">
	.st0{fill:#F9B02E;}
	.st1{fill:#FFFFFF;}
</style>
<g>
	<path class="st0" d="M75.7,89.6H45.8v-2c0-5.9-2.1-11.7-6.1-16.8c-4.6-5.9-6.6-13.4-5.6-20.9C35.8,37.4,46,27.4,58.5,25.9
		c7.9-0.9,15.9,1.6,21.8,6.9c5.9,5.3,9.3,12.9,9.3,20.8c0,6.4-2.1,12.4-6.1,17.4c-3.8,4.8-5.9,10.6-5.9,16.4v2L75.7,89.6z"/>
	<path class="st1" d="M123.6,27.4l-2.3-11.6h-11.6v4h5.8l-7.2,9c-0.4-0.8-0.8-1.6-1.2-2.4l-3.5,1.9c0.7,1.3,1.3,2.5,1.9,3.9
		l-2.1,2.7l-12-10L76.8,44.3c-0.9-0.4-2-0.6-3-0.6c-4.4,0-8,3.6-8,8v4h-8v-4c0-4.4-3.6-8-8-8c-1.1,0-2.1,0.2-3,0.6L32.2,24.9l-12,10
		l-2.1-2.7c0.6-1.4,1.3-2.7,2-4l-3.5-2c-0.5,0.8-0.9,1.7-1.3,2.5l-7.2-9h5.8v-4H2.3L0,27.4l3.9,0.8l1.2-5.8l8.4,10.5
		c-0.1,0.4-0.3,0.7-0.4,1.1l1.8,0.7l4.8,5.9l11.9-9.9l12.1,16.1c-1.1,1.4-1.8,3.1-1.8,5c0,4.4,3.6,8,8,8h4v25.9h-8c-3.3,0-6,2.7-6,6
		c0,1.3,0.4,2.5,1.1,3.4l-1.6,3.4c0.8,0.4,1.7,0.7,2.5,1.1c0,0,0,0,0,0c0,2.1,1.1,4,2.8,5c-0.5,0.9-0.8,1.9-0.8,2.9c0,3.3,2.7,6,6,6
		h23.9c3.3,0,6-2.7,6-6c0-1.1-0.3-2.1-0.8-2.9c1.7-1.1,2.8-2.9,2.8-5c0,0,0,0,0,0c0.8-0.4,1.7-0.7,2.5-1.1L82.6,95
		c0.7-1,1.1-2.2,1.1-3.4c0-3.3-2.7-6-6-6h-8V59.7h4c4.4,0,8-3.6,8-8c0-1.9-0.7-3.6-1.8-5L92,30.6l11.9,9.9l4.6-5.7l2.1-0.7
		c-0.1-0.4-0.3-0.8-0.5-1.2l8.4-10.5l1.2,5.8L123.6,27.4z M49.8,55.7c-2.2,0-4-1.8-4-4c0-0.6,0.1-1.1,0.3-1.6l2.1,2.8l3.2-2.4
		l-2.1-2.7c0.2,0,0.3,0,0.5,0c2.2,0,4,1.8,4,4v4H49.8L49.8,55.7z M77.7,99.5c0,1.1-0.9,2-2,2h-2H49.8h-2c-1.1,0-2-0.9-2-2
		c0-1.1,0.9-2,2-2h27.9C76.8,97.6,77.7,98.4,77.7,99.5z M73.7,109.5H49.8c-1.1,0-2-0.9-2-2c0-1.1,0.9-2,2-2h23.9c1.1,0,2,0.9,2,2
		C75.7,108.6,74.8,109.5,73.7,109.5z M79.7,91.6c0,1.1-0.9,2-2,2h-2H47.8h-2c-1.1,0-2-0.9-2-2c0-1.1,0.9-2,2-2h31.9
		C78.8,89.6,79.7,90.5,79.7,91.6z M57.8,85.6V59.7h8v25.9H57.8z M77.7,51.7c0,2.2-1.8,4-4,4h-4v-4c0-2.2,1.8-4,4-4
		c0.2,0,0.3,0,0.5,0l-2.1,2.7l3.2,2.4l2.1-2.8C77.6,50.6,77.7,51.1,77.7,51.7z"/>
	<path class="st1" d="M42.9,7.7L41.3,4c-2.6,1.1-5.1,2.4-7.5,4l2.2,3.4C38.2,10,40.5,8.7,42.9,7.7z"/>
	<path class="st1" d="M58,4l-0.3-4c-2.8,0.2-5.6,0.7-8.3,1.4l1,3.9C52.8,4.6,55.4,4.2,58,4z"/>
	<path class="st1" d="M29.8,16.1l-2.7-3c-2.1,1.9-4,3.9-5.8,6.1l3.1,2.5C26,19.7,27.8,17.8,29.8,16.1z"/>
	<path class="st1" d="M14.4,58.4l-3.9,0.6c0.4,2.8,1,5.6,1.9,8.3l3.8-1.2C15.3,63.5,14.7,61,14.4,58.4z"/>
	<path class="st1" d="M89.9,8.1c-2.4-1.5-4.9-2.9-7.4-4l-1.6,3.7c2.4,1,4.7,2.3,6.9,3.7L89.9,8.1z"/>
	<path class="st1" d="M74.4,1.4c-2.7-0.7-5.5-1.1-8.3-1.4l-0.3,4c2.6,0.2,5.2,0.6,7.7,1.3L74.4,1.4z"/>
	<path class="st1" d="M99.2,21.9l3.1-2.5c-1.7-2.2-3.7-4.3-5.8-6.2l-2.7,3C95.8,17.9,97.6,19.9,99.2,21.9z"/>
	<path class="st1" d="M107.4,66.1l3.8,1.2c0.8-2.7,1.5-5.5,1.9-8.2l-3.9-0.6C108.8,61.1,108.2,63.7,107.4,66.1z"/>
	<path class="st1" d="M108.9,43c0.5,2.5,0.7,5.2,0.8,7.8l4-0.1c-0.1-2.8-0.3-5.6-0.8-8.4L108.9,43z"/>
	<path class="st1" d="M100.4,80l3.2,2.4c1.7-2.3,3.2-4.7,4.4-7.2l-3.6-1.8C103.3,75.7,101.9,77.9,100.4,80z"/>
	<path class="st1" d="M89.2,90.9l2.3,3.3c2.3-1.6,4.5-3.4,6.5-5.4l-2.8-2.8C93.4,87.7,91.4,89.4,89.2,90.9z"/>
	<path class="st1" d="M15.5,75c1.3,2.5,2.8,4.9,4.4,7.2l3.2-2.4c-1.5-2.1-2.9-4.3-4.1-6.7L15.5,75z"/>
	<path class="st1" d="M14.7,42.8l-3.9-0.7c-0.5,2.8-0.8,5.6-0.9,8.4l4,0.1C14,48,14.3,45.4,14.7,42.8z"/>
	<path class="st1" d="M25.4,88.6c2,2,4.2,3.8,6.5,5.4l2.3-3.3c-2.1-1.5-4.1-3.2-6-5L25.4,88.6z"/>
</g>
</svg>
