<?xml version="1.0" encoding="utf-8"?>
<!-- Generator: Adobe Illustrator 19.0.0, SVG Export Plug-In . SVG Version: 6.00 Build 0)  -->
<svg version="1.1" id="Слой_1" xmlns="http://www.w3.org/2000/svg" xmlns:xlink="http://www.w3.org/1999/xlink" x="0px" y="0px"
	 viewBox="0 0 114.2 106" style="enable-background:new 0 0 114.2 106;" xml:space="preserve">
<style type="text/css">
	.st0{fill:none;stroke:#FFFFFF;stroke-width:4;stroke-miterlimit:10;stroke-dasharray:6.6584,6.6584;}
	.st1{fill:#FFFFFF;}
	.st2{fill:#F9B02E;}
</style>
<g id="XMLID_2_">
	<g id="XMLID_13_">
		<circle id="XMLID_15_" class="st0" cx="-323.3" cy="52.7" r="21.2"/>
	</g>
	<g id="XMLID_3_">
		<path id="XMLID_7_" class="st1" d="M111.2,75.8c-1.9-1.7-4.3-2.5-6.9-2.2l-29.6,3c0.1-0.9,0-1.9-0.2-2.9c-1.1-3.9-5.2-6.1-9.1-5
			l-2.6,0.8V59L72,53c8.2-0.3,14.8-7.1,14.8-15.4v-1.7h-1.7c-8.2,0-14.8,6.4-15.3,14.4l-6.9,4.6V29.1h-3.4v17.3l-6.9-4.6
			c-0.5-8-7.2-14.4-15.3-14.4h-1.7v1.7c0,8.3,6.6,15.1,14.8,15.4l9.1,6.1v19.9L37,76.9H23.6v-3.4H8.2v30.8h15.4v-1.5l23.7,3.2
			l24.5,0l36.9-15.4c3.3-1.4,5.5-4.6,5.5-8.2C114.2,79.9,113.1,77.5,111.2,75.8z M83.3,39.5c-0.8,5.1-4.9,9.2-10,10
			C74.1,44.3,78.1,40.3,83.3,39.5z M39.1,30.9c5.1,0.8,9.2,4.9,10,10C43.9,40.1,39.9,36,39.1,30.9z M20.1,100.8h-8.5V76.9h8.5V100.8
			z M107.4,87.4l-36.3,15.1H47.6l-24-3.2v-19h13.7L66.4,72c2.1-0.6,4.2,0.6,4.8,2.7c0.5,1.9-0.3,3.8-2.1,4.6L48.5,89l1.5,3.1
			l20.7-9.8c1.1-0.5,2-1.3,2.7-2.2l31.4-3.2c1.6-0.2,3.1,0.3,4.2,1.4c1.2,1,1.8,2.5,1.8,4.1C110.8,84.6,109.4,86.6,107.4,87.4z"/>
		<path id="XMLID_6_" class="st2" d="M61.2,30.8c-8.5,0-15.4-6.9-15.4-15.4C45.8,6.9,52.7,0,61.2,0c8.5,0,15.4,6.9,15.4,15.4
			C76.6,23.9,69.7,30.8,61.2,30.8z"/>
		<g id="XMLID_4_">
			<path id="XMLID_5_" class="st1" d="M62.9,20.5h-3.4c-0.9,0-1.7-0.8-1.7-1.7h-3.4c0,2.8,2.3,5.1,5.1,5.1v1.7h3.4v-1.7
				c2.8,0,5.1-2.3,5.1-5.1c0-2.8-2.3-5.1-5.1-5.1h-3.4c-0.9,0-1.7-0.8-1.7-1.7c0-0.9,0.8-1.7,1.7-1.7h3.4c0.9,0,1.7,0.8,1.7,1.7H68
				c0-2.8-2.3-5.1-5.1-5.1V5.1h-3.4v1.7c-2.8,0-5.1,2.3-5.1,5.1s2.3,5.1,5.1,5.1h3.4c0.9,0,1.7,0.8,1.7,1.7
				C64.6,19.8,63.8,20.5,62.9,20.5z"/>
		</g>
	</g>
</g>
</svg>
