<?xml version="1.0" encoding="utf-8"?>
<!-- Generator: Adobe Illustrator 19.0.0, SVG Export Plug-In . SVG Version: 6.00 Build 0)  -->
<svg version="1.1" id="Слой_1" xmlns="http://www.w3.org/2000/svg" xmlns:xlink="http://www.w3.org/1999/xlink" x="0px" y="0px"
	 viewBox="0 0 111.4 111.4" style="enable-background:new 0 0 111.4 111.4;" xml:space="preserve">
<style type="text/css">
	.st0{fill:#F9B02E;}
	.st1{fill:#FFFFFF;}
</style>
<g>
	<g>
		<path class="st0" d="M55.7,59.3c-2,0-3.6-1.6-3.6-3.6c0-2,1.6-3.6,3.6-3.6c0.7,0,1.3,0.2,1.8,0.5V1.8c-0.6,0-1.2,0-1.8,0
			C25.9,1.8,1.8,25.9,1.8,55.7c0,29.8,24.1,53.9,53.9,53.9c0.6,0,1.2,0,1.8,0V58.8C57,59.1,56.3,59.3,55.7,59.3z"/>
		<path class="st1" d="M107.7,59.2l3.6,0.2c0.1-1.2,0.1-2.5,0.1-3.7h-3.6C107.8,56.9,107.7,58,107.7,59.2z"/>
		<path class="st1" d="M16.6,90.1l-2.7,2.4c1.6,1.8,3.3,3.5,5.1,5.1l2.4-2.7C19.7,93.4,18.1,91.8,16.6,90.1z"/>
		<path class="st1" d="M24.8,102c2,1.3,4.1,2.6,6.3,3.6l1.6-3.2c-2-1-4-2.1-5.9-3.4L24.8,102z"/>
		<path class="st1" d="M37.8,108.5c2.3,0.8,4.7,1.4,7,1.9l0.7-3.5c-2.2-0.4-4.4-1-6.6-1.8L37.8,108.5z"/>
		<path class="st1" d="M99,84.7l3,2c1.3-2,2.6-4.1,3.6-6.3l-3.2-1.6C101.4,80.8,100.2,82.8,99,84.7z"/>
		<path class="st1" d="M4.6,66l-3.5,0.7c0.5,2.4,1.1,4.7,1.9,7l3.4-1.2C5.7,70.4,5.1,68.2,4.6,66z"/>
		<path class="st1" d="M5.8,80.4c1.1,2.2,2.3,4.3,3.7,6.3l3-2c-1.3-1.9-2.4-3.9-3.4-5.9L5.8,80.4z"/>
		<path class="st1" d="M52.3,107.7l-0.2,3.6c1.2,0.1,2.4,0.1,3.6,0.1c1.2,0,2.5,0,3.7-0.1l-0.2-3.6
			C56.9,107.8,54.6,107.8,52.3,107.7z"/>
		<path class="st1" d="M105,72.5l3.4,1.2c0.8-2.3,1.4-4.7,1.9-7l-3.5-0.7C106.3,68.1,105.7,70.3,105,72.5z"/>
		<path class="st1" d="M65.9,106.8l0.7,3.5c2.4-0.5,4.7-1.1,7-1.9l-1.2-3.4C70.3,105.8,68.1,106.3,65.9,106.8z"/>
		<path class="st1" d="M90,94.9l2.4,2.7c1.8-1.6,3.5-3.3,5.1-5.1l-2.7-2.4C93.3,91.8,91.7,93.4,90,94.9z"/>
		<path class="st1" d="M78.7,102.4l1.6,3.2c2.2-1.1,4.3-2.3,6.3-3.6l-2-3C82.7,100.3,80.8,101.4,78.7,102.4z"/>
		<path class="st1" d="M3.6,55.7C3.6,27,27,3.6,55.7,3.6c9.2,0,18.2,2.4,26.1,7l-5.2,2.1l1.3,3.3L88,12V1.8h-3.6V8
			c-8.7-5.2-18.5-8-28.7-8C25,0,0,25,0,55.7c0,1.2,0,2.5,0.1,3.7l3.6-0.2C3.6,58,3.6,56.9,3.6,55.7z"/>
		<path class="st1" d="M95.2,43.1c0-1-0.3-2-0.8-2.8l9.8-15.5c0.6,0.2,1.1,0.3,1.8,0.3c3,0,5.4-2.4,5.4-5.4c0-3-2.4-5.4-5.4-5.4
			c-3,0-5.4,2.4-5.4,5.4c0,1,0.3,2,0.8,2.8L91.6,38c-0.6-0.2-1.1-0.3-1.8-0.3c-1.4,0-2.7,0.6-3.7,1.5L79,34.9c0-0.2,0.1-0.5,0.1-0.7
			c0-3-2.4-5.4-5.4-5.4c-3,0-5.4,2.4-5.4,5.4c0,0.9,0.3,1.8,0.7,2.6l-11.2,14c-0.1,0-0.2,0-0.2-0.1V10.8h-1.8
			c-24.8,0-44.9,20.1-44.9,44.9c0,24.8,20.1,44.9,44.9,44.9h1.8V60.7c2.1-0.7,3.6-2.7,3.6-5.1c0-0.9-0.3-1.8-0.7-2.6l11.2-14
			c0.6,0.3,1.3,0.4,2,0.4c1.4,0,2.7-0.6,3.7-1.5l7.2,4.3c0,0.2-0.1,0.5-0.1,0.7c0,3,2.4,5.4,5.4,5.4C92.8,48.5,95.2,46.1,95.2,43.1z
			 M106,18c1,0,1.8,0.8,1.8,1.8s-0.8,1.8-1.8,1.8c-1,0-1.8-0.8-1.8-1.8S105,18,106,18z M53.9,35.8c-5.4-0.3-10.3-1.7-14.4-3.5
			c4.5-8.9,10.9-14.1,14.4-16.5V35.8z M36.3,30.8c-3.9-2.1-6.8-4.3-8.4-5.6c5.8-5.3,13.2-9,21.3-10.3C45.3,18.1,40.2,23.2,36.3,30.8
			z M34.8,34.1c-2.3,5.5-4,12.1-4.2,19.8H14.4c0.4-10.1,4.5-19.2,10.9-26.2C27.1,29.2,30.3,31.7,34.8,34.1z M30.6,57.5
			c0.2,7.8,1.9,14.3,4.2,19.8c-4.4,2.3-7.7,4.9-9.5,6.4c-6.4-7-10.5-16.1-10.9-26.2H30.6z M36.3,80.6c3.9,7.5,9,12.7,12.9,15.9
			c-8.1-1.3-15.5-5-21.3-10.3C29.5,84.9,32.4,82.7,36.3,80.6z M39.5,79c4.1-1.8,9-3.2,14.3-3.5v20C50.4,93.1,44.1,87.9,39.5,79z
			 M53.9,71.9c-6,0.3-11.4,1.8-15.9,3.8c-2.1-5.1-3.6-11.1-3.8-18.2h16.5c0.5,1.5,1.7,2.7,3.3,3.3L53.9,71.9L53.9,71.9L53.9,71.9z
			 M50.6,53.9H34.2c0.2-7.2,1.7-13.2,3.8-18.3c4.5,2,9.9,3.6,15.9,3.8v11.2C52.4,51.2,51.2,52.4,50.6,53.9z M55.7,57.5
			c-1,0-1.8-0.8-1.8-1.8c0-1,0.8-1.8,1.8-1.8s1.8,0.8,1.8,1.8C57.5,56.7,56.7,57.5,55.7,57.5z M73.7,35.9c-1,0-1.8-0.8-1.8-1.8
			c0-1,0.8-1.8,1.8-1.8c1,0,1.8,0.8,1.8,1.8C75.4,35.1,74.6,35.9,73.7,35.9z M89.8,44.9c-1,0-1.8-0.8-1.8-1.8c0-1,0.8-1.8,1.8-1.8
			c1,0,1.8,0.8,1.8,1.8C91.6,44.1,90.8,44.9,89.8,44.9z"/>
	</g>
</g>
</svg>
