<?xml version="1.0" encoding="utf-8"?>
<!-- Generator: Adobe Illustrator 19.0.0, SVG Export Plug-In . SVG Version: 6.00 Build 0)  -->
<svg version="1.1" id="Слой_1" xmlns="http://www.w3.org/2000/svg" xmlns:xlink="http://www.w3.org/1999/xlink" x="0px" y="0px"
	 width="45.6px" height="142.4px" viewBox="0 0 45.6 142.4" style="enable-background:new 0 0 45.6 142.4;" xml:space="preserve">
<style type="text/css">
	.st0{fill:#3CD0D7;}
	.st1{fill:#FFFFFF;}
</style>
<g>
	<circle class="st0" cx="22.9" cy="22.7" r="22.7"/>
	<g id="Phone_1_x40_2x.png_8_">
		<g id="XMLID_15_">
			<path id="XMLID_16_" class="st1" d="M33.9,29.2L33.9,29.2c0-0.4-0.2-0.8-0.4-1.1c-0.1-0.1-0.2-0.1-0.3-0.2L29,24.7
				c-0.3-0.3-0.6-0.4-1.1-0.4c-0.3,0-0.7,0.1-0.9,0.3l-1.2,1.2l0,0c-0.2,0.2-0.4,0.3-0.7,0.3c-0.3,0-0.6-0.2-0.8-0.4c0,0,0,0,0,0
				c-1.6-1.2-3.1-2.6-4.3-4.3c0,0,0,0,0,0c-0.3-0.2-0.4-0.5-0.4-0.8c0-0.3,0.1-0.6,0.4-0.8l0,0l1.2-1.2c0.2-0.3,0.3-0.6,0.3-0.9
				c0-0.4-0.2-0.8-0.4-1.1l-3.3-4.3c-0.1-0.1-0.1-0.2-0.2-0.3c-0.3-0.3-0.6-0.4-1.1-0.4c-2,0-4.5,2.4-4.5,5.3c0,0.8,0.2,1.6,0.5,2.3
				l0,0c3,6,8,11,14.1,14.1l0,0c0.7,0.3,1.4,0.5,2.3,0.5C31.6,33.8,33.9,31.3,33.9,29.2C33.9,29.2,33.9,29.2,33.9,29.2z"/>
		</g>
	</g>
</g>
<g id="XMLID_8_">
	<circle id="XMLID_20_" class="st0" cx="22.9" cy="70.7" r="22.7"/>
	<g id="XMLID_11_">
		<g id="XMLID_14_">
			<path id="XMLID_17_" class="st1" d="M23.2,78L23.2,78c-5.9,0-10.8-4.8-10.8-10.8c0-5.9,4.8-10.8,10.8-10.8c2.9,0,5.6,1.1,7.6,3.2
				c2,2,3.2,4.7,3.2,7.6C33.9,73.2,29.1,78,23.2,78z M23.2,61.4c-3.2,0-5.8,2.6-5.8,5.8c0,3.2,2.6,5.8,5.8,5.8
				c3.2,0,5.8-2.6,5.8-5.8c0-1.6-0.6-3-1.7-4.1C26.2,62,24.7,61.4,23.2,61.4z"/>
		</g>
		<g id="XMLID_12_">
			<path id="XMLID_13_" class="st1" d="M14.6,73.7c-0.4-0.7,3.2,1.6,4.1,1.6l4.7,1.3l4.3-1.3c0.9,0,4.5-2.3,4.1-1.6L24,83.9
				c-0.4,0.7-1.2,0.7-1.6,0L14.6,73.7z"/>
		</g>
	</g>
</g>
<g id="XMLID_2_">
	<circle id="XMLID_7_" class="st0" cx="22.7" cy="119.7" r="22.7"/>
	<g id="XMLID_3_">
		<g id="XMLID_4_">
			<path id="XMLID_6_" class="st1" d="M12.7,112.5l8.9,7c0.4,0.3,1,0.5,1.5,0.4c0.5,0,1.1-0.1,1.5-0.4l8.9-7c0.7-0.6,0.5-1-0.4-1
				h-10h-10C12.2,111.5,12,111.9,12.7,112.5z"/>
			<path id="XMLID_5_" class="st1" d="M34,114.3l-9.7,7.3c-0.4,0.3-0.8,0.4-1.3,0.4c-0.5,0-0.9-0.1-1.3-0.4l-9.7-7.3
				c-0.7-0.5-1.3-0.3-1.3,0.6v12c0,0.9,0.7,1.6,1.6,1.6h10.6h10.6c0.9,0,1.6-0.7,1.6-1.6v-12C35.3,114.1,34.8,113.8,34,114.3z"/>
		</g>
	</g>
</g>
</svg>
