<?xml version="1.0" encoding="utf-8"?>
<!-- Generator: Adobe Illustrator 19.0.0, SVG Export Plug-In . SVG Version: 6.00 Build 0)  -->
<svg version="1.1" id="Слой_1" xmlns="http://www.w3.org/2000/svg" xmlns:xlink="http://www.w3.org/1999/xlink" x="0px" y="0px"
	 viewBox="0 0 236 49.5" style="enable-background:new 0 0 236 49.5;" xml:space="preserve">
<style type="text/css">
	.st0{fill:#F6AF3F;}
	.st1{fill:#FFFFFF;}
	.st2{fill:#4BBABF;}
</style>
<g>
	<path class="st0" d="M34.1,9.7L21.3,2.3c-5.4-3.1-12.1-3.1-17.6,0L0,4.5l15.1,8.7c4,2.3,8.9,2.3,12.9,0L34.1,9.7z"/>
	<g>
		<path class="st0" d="M74.9,5.6V11h-14v6.5h12.8v5.4H60.9v10.7h-6.1V5.6H74.9z"/>
		<path class="st0" d="M89.6,5.6v28.1h-6.1V5.6H89.6z"/>
		<path class="st0" d="M110.4,5.6c10.1,0,14.9,5.9,14.9,14c0,8.1-4.8,14-14.9,14H99.7V5.6H110.4z M110.4,10.9h-4.6v17.5h4.6
			c5.7,0,8.7-3,8.7-8.7C119.1,13.8,116.1,10.9,110.4,10.9z"/>
		<path class="st0" d="M154.1,5.6v5.3h-14v6h12.7v5.3h-12.7v6.3h14.2v5.3H134V5.6H154.1z"/>
		<path class="st0" d="M169.4,5.6v22.7h14v5.4h-20.1V5.6H169.4z"/>
		<path class="st0" d="M197.1,5.6v28.1H191V5.6H197.1z"/>
		<path class="st0" d="M220.8,5c10.1,0,15.1,7,15.1,14.6c0,7.6-5,14.6-15.1,14.6c-10.1,0-15.1-7-15.1-14.6C205.7,12,210.7,5,220.8,5
			z M220.8,10.6c-5.9,0-8.9,4.1-8.9,9c0,4.9,3,9,8.9,9c5.9,0,8.9-4.1,8.9-9C229.7,14.7,226.7,10.6,220.8,10.6z"/>
	</g>
	<g>
		<path class="st1" d="M56.7,44.2c1.2,0,2.3,0.4,2.3,1.7c0,1.3-1,1.7-2.3,1.7h-1.2v1.9h-0.6v-5.3H56.7z M56.7,44.8h-1.2V47h1.2
			c0.9,0,1.6-0.2,1.6-1.1C58.3,45,57.6,44.8,56.7,44.8z"/>
		<path class="st1" d="M67.6,49.5v-5.3h2.1c1,0,2,0.4,2,1.6c0,1-0.7,1.4-1.4,1.5l1.8,2.1h-0.8l-1.8-2.1h-1.3v2.1H67.6z M68.2,46.8
			h1.5c0.6,0,1.3-0.2,1.3-1c0-0.8-0.7-1-1.3-1h-1.5V46.8z"/>
		<path class="st1" d="M81.2,44.2v5.3h-0.6v-5.3H81.2z"/>
		<path class="st1" d="M91.8,49.5l-2.2-5.3h0.7l1.9,4.6l1.9-4.6h0.7l-2.2,5.3H91.8z"/>
		<path class="st1" d="M102.1,49.5l2.3-5.3h0.7l2.3,5.3h-0.7l-0.6-1.3h-2.9l-0.6,1.3H102.1z M103.6,47.6h2.4l-1.1-2.6
			c0-0.1-0.1-0.1-0.1-0.2c0,0.1-0.1,0.1-0.1,0.2L103.6,47.6z"/>
		<path class="st1" d="M119.1,44.2v0.6h-1.9v4.7h-0.6v-4.7h-1.9v-0.6H119.1z"/>
		<path class="st1" d="M131.2,44.2v0.6h-3v1.7h2.7v0.6h-2.7v1.8h3v0.6h-3.7v-5.3H131.2z"/>
		<path class="st1" d="M152,44.1c0.5,0,1.1,0.1,1.5,0.4v0.6c-0.4-0.3-0.9-0.4-1.4-0.4c-1.1,0-2.3,0.7-2.3,2.2c0,1.4,1.2,2.1,2.3,2.1
			c0.6,0,1-0.1,1.4-0.4v0.6c-0.4,0.2-1,0.4-1.6,0.4c-1.3,0-2.8-0.9-2.8-2.7C149.2,45,150.6,44.1,152,44.1z"/>
		<path class="st1" d="M164.5,44.1c1.9,0,2.8,1.4,2.8,2.7c0,1.4-0.9,2.7-2.8,2.7c-1.9,0-2.8-1.4-2.8-2.7
			C161.7,45.5,162.6,44.1,164.5,44.1z M164.5,44.7c-1.5,0-2.1,1-2.1,2.1c0,1.1,0.7,2.1,2.1,2.1c1.5,0,2.1-1,2.1-2.1
			C166.7,45.7,166,44.7,164.5,44.7z"/>
		<path class="st1" d="M181.5,44.2v5.3h-0.6v-4.1l-1.9,2.8h-0.4l-1.9-2.8v4.1H176v-5.3h0.6l2.2,3.3l2.2-3.3H181.5z"/>
		<path class="st1" d="M192.4,44.2c1.2,0,2.3,0.4,2.3,1.7c0,1.3-1,1.7-2.3,1.7h-1.2v1.9h-0.6v-5.3H192.4z M192.4,44.8h-1.2V47h1.2
			c0.9,0,1.6-0.2,1.6-1.1C194,45,193.3,44.8,192.4,44.8z"/>
		<path class="st1" d="M202.2,49.5l2.3-5.3h0.7l2.3,5.3h-0.7l-0.6-1.3h-2.9l-0.6,1.3H202.2z M203.7,47.6h2.4L205,45
			c0-0.1-0.1-0.1-0.1-0.2c0,0.1-0.1,0.1-0.1,0.2L203.7,47.6z"/>
		<path class="st1" d="M216,49.5v-5.3h0.6l3.2,4.2c0-0.2,0-0.3,0-0.5v-3.8h0.6v5.3h-0.6l-3.2-4.2c0,0.2,0,0.3,0,0.5v3.8H216z"/>
		<path class="st1" d="M231,49.5v-2l-2.1-3.3h0.7l1.7,2.7l1.7-2.7h0.7l-2.1,3.3v2H231z"/>
	</g>
	<path class="st2" d="M16.1,38.6l12.8-7.4c5.4-3.1,8.8-8.9,8.8-15.2v-4.4l-15.1,8.7c-4,2.3-6.4,6.5-6.4,11.1V38.6z"/>
	<path class="st1" d="M6.1,13.1L0,9.5v13.8c0,6.2,3.3,12,8.8,15.1l3.8,2.2V24.1C12.6,19.6,10.1,15.3,6.1,13.1z"/>
</g>
</svg>
