<?xml version="1.0" encoding="utf-8"?>
<!-- Generator: Adobe Illustrator 19.0.0, SVG Export Plug-In . SVG Version: 6.00 Build 0)  -->
<svg version="1.1" id="Слой_1" xmlns="http://www.w3.org/2000/svg" xmlns:xlink="http://www.w3.org/1999/xlink" x="0px" y="0px"
	 viewBox="0 0 205.2 72.5" style="enable-background:new 0 0 205.2 72.5;" xml:space="preserve">
<style type="text/css">
	.st0{fill:#FFFFFF;}
</style>
<g id="XMLID_21_">
	<path id="XMLID_22_" class="st0" d="M0,0.6h20.6v7.1H8.2v7.1h10.3v7.1H8.2v12.5H0V0.6z"/>
	<path id="XMLID_24_" class="st0" d="M30,0.6h8.2v33.7H30V0.6z"/>
	<path id="XMLID_26_" class="st0" d="M50,0.6h12c10.6,0,17.4,6.2,17.4,16.8c0,10.6-6.8,16.9-17.4,16.9H50V0.6z M61.6,27.2
		c5.7,0,9.2-3.4,9.2-9.8c0-6.4-3.6-9.7-9.2-9.7h-3.4v19.5H61.6z"/>
	<path id="XMLID_29_" class="st0" d="M89.4,0.6h21.1v7.1H97.7v6.1h10.3v7.1H97.7v6.4h13.5v7.1H89.4V0.6z"/>
	<path id="XMLID_31_" class="st0" d="M121.1,0.6h8.2v26.6h13.8v7.1h-22V0.6z"/>
	<path id="XMLID_33_" class="st0" d="M151.8,0.6h8.2v33.7h-8.2V0.6z"/>
	<path id="XMLID_35_" class="st0" d="M187.6,0c10.5,0,17.6,7.5,17.6,17.2c0,9.9-7.2,17.6-17.6,17.6c-10.5,0-17.6-7.7-17.6-17.6
		C170,7.5,177.2,0,187.6,0z M187.6,27.3c5.3,0,9.1-4.3,9.1-10.1c0-5.5-3.8-9.7-9.1-9.7c-5.3,0-9.1,4.1-9.1,9.7
		C178.5,22.9,182.3,27.3,187.6,27.3z"/>
</g>
<g id="XMLID_14_">
	<path id="XMLID_15_" class="st0" d="M100.6,44.1h14.3v1.6h-12.6v11.8h10.9v1.6h-10.9v13.3h-1.7V44.1z"/>
	<path id="XMLID_17_" class="st0" d="M121.9,71.1l15.6-22.8c1-1.5,1.9-2.6,1.9-2.6v-0.1c0,0-0.6,0.1-2.1,0.1h-14.6v-1.6h18.8v1.4
		L126,68.3c-1,1.5-1.9,2.6-1.9,2.6V71c0,0,0.6-0.1,2.1-0.1h15.6v1.6h-19.8V71.1z"/>
	<path id="XMLID_19_" class="st0" d="M151.8,44.1h15.5v1.6h-13.8v11.6h11.3V59h-11.3v11.9h14.6v1.6h-16.3V44.1z"/>
</g>
</svg>
