<?xml version="1.0" encoding="utf-8"?>
<!-- Generator: Adobe Illustrator 19.0.0, SVG Export Plug-In . SVG Version: 6.00 Build 0)  -->
<svg version="1.1" id="Слой_1" xmlns="http://www.w3.org/2000/svg" xmlns:xlink="http://www.w3.org/1999/xlink" x="0px" y="0px"
	 width="66px" height="66px" viewBox="0 0 66 66" style="enable-background:new 0 0 66 66;" xml:space="preserve">
<style type="text/css">
	.st0{fill:#D09D49;}
	.st1{fill:none;stroke:#FFFFFF;stroke-width:3;stroke-miterlimit:10;}
</style>
<g>
	<path class="st0" d="M66,39.6V26.4h-7.5c-0.6-2.4-1.6-4.7-2.8-6.8l5.3-5.3L51.7,5l-5.3,5.3C44.3,9,42,8.1,39.6,7.5V0H26.4v7.5
		C24,8.1,21.7,9,19.6,10.3L14.3,5L5,14.3l5.3,5.3C9,21.7,8.1,24,7.5,26.4H0v13.2h7.5c0.6,2.4,1.6,4.7,2.8,6.8L5,51.7l9.3,9.3
		l5.3-5.3c2.1,1.2,4.4,2.2,6.8,2.8V66h13.2v-7.5c2.4-0.6,4.7-1.6,6.8-2.8l5.3,5.3l9.3-9.3l-5.3-5.3c1.2-2.1,2.2-4.4,2.8-6.8H66
		L66,39.6z M33,48.4c-8.5,0-15.4-6.9-15.4-15.4S24.5,17.6,33,17.6S48.4,24.5,48.4,33S41.5,48.4,33,48.4z"/>
	<circle class="st1" cx="33" cy="33" r="16"/>
</g>
</svg>
