<?xml version="1.0" encoding="utf-8"?>
<!-- Generator: Adobe Illustrator 19.0.0, SVG Export Plug-In . SVG Version: 6.00 Build 0)  -->
<svg version="1.1" id="Слой_1" xmlns="http://www.w3.org/2000/svg" xmlns:xlink="http://www.w3.org/1999/xlink" x="0px" y="0px"
	 width="83.4px" height="67.7px" viewBox="0 0 83.4 67.7" style="enable-background:new 0 0 83.4 67.7;" xml:space="preserve">
<style type="text/css">
	.st0{fill:#D09D49;}
	.st1{fill:none;stroke:#FFFFFF;stroke-width:2.5;stroke-miterlimit:10;}
</style>
<g>
	<g>
		<g>
			<path class="st0" d="M82.5,56.4l-5-10.6c-0.6-1.3-2.8-1.3-3.4,0l-5,10.5c-0.6,1.1-0.9,2.4-0.9,3.7c0,4.2,3.4,7.6,7.6,7.6
				c4.2,0,7.6-3.4,7.6-7.6C83.4,58.8,83.1,57.5,82.5,56.4z"/>
		</g>
	</g>
	<g>
		<g>
			<path class="st1" d="M69.9,38.9c-0.1-1-0.9-1.7-1.9-1.9l-22.2-3.2L43.5,25c-0.4-1.7-1.6-3.1-3.1-4l-7.9-4.6l2.2-3.8
				c3.1,1.2,6.9,5.6,8.7,2.5c0.6-1,0.2-2.4-0.8-3L27.4,3.4c-1-0.6-2.4-0.2-3,0.8c-0.6,1-0.2,2.4,0.8,3l5.7,3.3l-2.2,3.8L19.6,9
				l-4.9-5.5c-3-3.4-8.4-2.8-10.6,1.1l-2,3.4c-1.4,2.5-1.1,5.5,0.8,7.6l6,6.8l-2.5,4.3l41.3,23.8l20.9-9.4
				C69.5,40.8,70,39.8,69.9,38.9z M11.3,18.4l-5.1-5.7c-0.6-0.7-0.7-1.7-0.3-2.5l2-3.4c0.7-1.3,2.5-1.5,3.5-0.4l4.1,4.6
				C15.3,11.4,11,18.8,11.3,18.4z"/>
		</g>
	</g>
</g>
</svg>
