<?xml version="1.0" encoding="utf-8"?>
<!-- Generator: Adobe Illustrator 19.0.0, SVG Export Plug-In . SVG Version: 6.00 Build 0)  -->
<svg version="1.1" id="Слой_1" xmlns="http://www.w3.org/2000/svg" xmlns:xlink="http://www.w3.org/1999/xlink" x="0px" y="0px"
	 width="62px" height="62px" viewBox="0 0 62 62" style="enable-background:new 0 0 62 62;" xml:space="preserve">
<style type="text/css">
	.st0{fill:#FFFFFF;}
	.st1{fill:#D09D49;}
	.st2{fill:none;stroke:#FFFFFF;stroke-width:2;stroke-miterlimit:10;}
</style>
<g>
	<path class="st0" d="M52.5,62c-5.2,0-9.5-4.3-9.5-9.5c0-0.9,0.1-1.8,0.4-2.7L12.2,18.6c-0.9,0.3-1.8,0.4-2.7,0.4
		C4.3,19,0,14.7,0,9.5S4.3,0,9.5,0S19,4.3,19,9.5c0,0.9-0.1,1.8-0.4,2.7l31.2,31.2c0.9-0.3,1.8-0.4,2.7-0.4c5.2,0,9.5,4.3,9.5,9.5
		S57.7,62,52.5,62z M12.7,16.3l33,33l-0.2,0.6c-0.3,0.9-0.5,1.7-0.5,2.6c0,4.1,3.4,7.5,7.5,7.5s7.5-3.4,7.5-7.5S56.6,45,52.5,45
		c-0.9,0-1.8,0.2-2.6,0.5l-0.6,0.2l-33-33l0.2-0.6c0.3-0.9,0.5-1.7,0.5-2.6C17,5.4,13.6,2,9.5,2S2,5.4,2,9.5S5.4,17,9.5,17
		c0.9,0,1.8-0.2,2.6-0.5L12.7,16.3z"/>
	<path class="st1" d="M9.5,62c-1.1,0-2.2-0.2-3.3-0.6l-1.5-0.5l6.6-6.6c0.4-0.4,0.4-1,0-1.4l-2.2-2.2c-0.4-0.4-1-0.4-1.4,0l-6.6,6.6
		l-0.5-1.5c-0.8-2-0.8-4.2-0.1-6.3c0.9-2.8,3.2-5.1,6-6c1.9-0.6,3.8-0.6,5.7-0.1l31.2-31.2c-0.6-1.9-0.5-3.8,0.1-5.7
		c0.9-2.8,3.2-5.1,6-6c2.1-0.7,4.3-0.6,6.3,0.1l1.5,0.5l-6.6,6.6c-0.4,0.4-0.4,1,0,1.4l2.2,2.2c0.4,0.4,1,0.4,1.4,0l6.6-6.6l0.5,1.5
		c0.8,2,0.8,4.2,0.1,6.3c-0.9,2.8-3.2,5.1-6,6c-1.9,0.6-3.8,0.6-5.7,0.1L18.6,49.8c0.6,1.9,0.5,3.8-0.1,5.7c-0.9,2.8-3.2,5.1-6,6
		C11.5,61.8,10.5,62,9.5,62z"/>
	<circle class="st2" cx="52.1" cy="52.1" r="4.2"/>
	<circle class="st2" cx="9.9" cy="9.9" r="4.2"/>
</g>
</svg>
