<?xml version="1.0" encoding="utf-8"?>
<!-- Generator: Adobe Illustrator 19.0.0, SVG Export Plug-In . SVG Version: 6.00 Build 0)  -->
<svg version="1.1" id="Слой_1" xmlns="http://www.w3.org/2000/svg" xmlns:xlink="http://www.w3.org/1999/xlink" x="0px" y="0px"
	 width="46px" height="68.9px" viewBox="0 0 46 68.9" style="enable-background:new 0 0 46 68.9;" xml:space="preserve">
<style type="text/css">
	.st0{fill:#D09D49;}
	.st1{fill:#FFFFFF;}
</style>
<g transform="translate(1 1)">
	<g>
		<g>
			<path class="st0" d="M32.2,20.7h-4.9l4.8-8.6c0.2-0.3,0.2-0.8,0-1.1c-0.2-0.3-0.6-0.6-1-0.6h-6.9c-0.5,0-0.8,0.2-1,0.6l-8,14.9
				c-0.2,0.3-0.2,0.8,0,1.1c0.2,0.3,0.6,0.6,1,0.6h4.1L15.1,41c-0.2,0.5,0,1.1,0.5,1.4c0.2,0.1,0.3,0.1,0.6,0.1
				c0.3,0,0.7-0.1,0.9-0.3l16.1-19.5c0.2-0.3,0.3-0.8,0.1-1.3C33,20.9,32.6,20.7,32.2,20.7z"/>
			<path class="st1" d="M45.9,20.9C44.7,10,36,1.3,25.2,0.1C24.5,0.1,23.8,0,23,0c-0.8,0-1.5,0.1-2.2,0.1C10,1.4,1.3,10.1,0.1,20.9
				C-0.7,28.3,2,35.5,7.3,40.5c2.9,2.8,4.7,6,5.4,9.1v13.6c0,0.7,0.5,1.1,1.1,1.1h1.7l2.1,2.8c0.9,1.1,2.2,1.8,3.7,1.8h3.4
				c1.5,0,2.9-0.7,3.7-1.8l2.1-2.8h1.7c0.7,0,1.1-0.5,1.1-1.1V49.6c0.6-3.1,2.5-6.3,5.4-9.1C44,35.4,46.7,28.3,45.9,20.9z M31,52.8
				h-3.4c-0.7,0-1.1,0.5-1.1,1.1c0,0.7,0.5,1.1,1.1,1.1H31v2.3h-6.9c-0.7,0-1.1,0.5-1.1,1.1c0,0.7,0.5,1.1,1.1,1.1H31V62h-1.1H16.1
				H15v-2.3h3.4c0.7,0,1.1-0.5,1.1-1.1c0-0.7-0.5-1.1-1.1-1.1H15v-2.3h6.9c0.7,0,1.1-0.5,1.1-1.1s-0.5-1.1-1.1-1.1H15v-2.3H31
				L31,52.8L31,52.8z M26.6,65.7c-0.5,0.6-1.1,0.9-1.8,0.9h-3.4c-0.7,0-1.4-0.3-1.8-0.9l-1-1.4h9.2L26.6,65.7z M37.1,38.8
				c-2.9,2.9-4.9,6.1-5.9,9.4H14.7c-0.9-3.3-3-6.5-5.9-9.4c-4.8-4.6-7.1-11-6.4-17.7c1.1-9.8,9-17.6,18.7-18.7
				c0.6,0,1.1-0.1,1.8-0.1c0.7,0,1.3,0.1,1.8,0.1c9.8,1.1,17.7,9,18.7,18.7C44.2,27.8,42,34.2,37.1,38.8z"/>
		</g>
	</g>
</g>
</svg>
